<?xml version="1.0" encoding="utf-8"?>
<svg version="1.1" xmlns:serif="http://www.serif.com/"
	 xmlns="http://www.w3.org/2000/svg" xmlns:xlink="http://www.w3.org/1999/xlink" x="0px" y="0px" viewBox="0 0 1200 630"
	 style="enable-background:new 0 0 1200 630;" xml:space="preserve">
<style type="text/css">
	.st0{fill-rule:evenodd;clip-rule:evenodd;fill:#008FFE;}
	.st1{fill-rule:evenodd;clip-rule:evenodd;fill:#FFFFFF;}
</style>
<circle class="st0" cx="600" cy="315" r="315"/>
<polygon class="st1" points="460.3,324.6 387.7,470.3 374.5,463.7 518.5,174.7 524.9,162 526.7,157.5 528.7,162 535,174.7 
	526.8,191.2 468,309.2 585.6,309.2 526.8,191.2 535,174.7 598.8,302.5 595.4,309.2 598.8,302.5 662.5,174.7 670.8,191.2 
	611.9,309.2 729.6,309.2 670.8,191.2 662.5,174.7 668.8,162 670.8,157.6 672.7,162 823.1,463.7 809.9,470.3 737.2,324.6 
	609.8,324.6 679.1,463.7 665.9,470.3 598.8,335.6 531.6,470.3 518.4,463.7 587.8,324.6 460.3,324.6 "/>
</svg>
